<svg xmlns="http://www.w3.org/2000/svg" width="18.986" height="21.958"><path d="M9.391 0c-.127 0-.253.049-.349.142l-3.302 3.203c-.1.097-.156.229-.156.369s.056.272.156.369l3.302 3.203c.095.092.221.141.348.141l.198-.041c.185-.081.306-.266.306-.47v-2.147c3.937.213 7.078 3.519 7.078 7.562 0 4.182-3.354 7.584-7.479 7.584-4.124 0-7.478-3.402-7.478-7.584 0-.564-.451-1.021-1.007-1.021-.557 0-1.008.457-1.008 1.021 0 5.308 4.258 9.626 9.492 9.626 5.235 0 9.494-4.318 9.494-9.626 0-5.17-4.044-9.389-9.092-9.604v-2.217c0-.204-.121-.389-.306-.47l-.197-.04"/></svg>