<svg xmlns="http://www.w3.org/2000/svg" width="22" height="18.964"><path d="M20.958 0h-4.165c-.575 0-1.042.476-1.042 1.062s.467 1.06 1.042 1.06h1.55l-2.909 2.963c-.426.433-.426 1.135 0 1.568.213.217.491.326.771.326.278 0 .558-.109.771-.326l2.943-2.996v1.646c0 .585.467 1.059 1.042 1.059.574 0 1.04-.474 1.04-1.059v-4.241c-.001-.586-.467-1.062-1.043-1.062"/><path d="M16.203 12.093c-.279 0-.559.109-.771.326-.425.434-.425 1.135 0 1.568l2.805 2.854h-1.443c-.575 0-1.042.476-1.042 1.062 0 .587.467 1.062 1.042 1.062h4.165c.576 0 1.042-.475 1.042-1.062v-4.241c0-.584-.466-1.06-1.042-1.06-.574 0-1.042.476-1.042 1.06v1.752l-2.943-2.996c-.214-.215-.494-.325-.771-.325"/><path d="M5.208 0h-4.166c-.575 0-1.042.476-1.042 1.062v4.241c0 .585.467 1.059 1.042 1.059s1.042-.474 1.042-1.059v-1.613l2.911 2.962c.212.217.491.326.77.326s.558-.109.771-.326c.426-.433.426-1.135 0-1.568l-2.91-2.963h1.583c.576 0 1.043-.474 1.043-1.06-.001-.585-.469-1.061-1.044-1.061"/><path d="M5.765 12.093c-.279 0-.558.109-.77.326l-2.911 2.961v-1.719c0-.584-.466-1.06-1.042-1.06s-1.042.477-1.042 1.061v4.241c0 .587.467 1.062 1.042 1.062h4.165c.576 0 1.043-.475 1.043-1.062s-.468-1.062-1.043-1.062h-1.477l2.805-2.854c.426-.434.426-1.135 0-1.568-.213-.216-.491-.326-.77-.326"/></svg>