<svg xmlns="http://www.w3.org/2000/svg" width="28.764" height="23.854"><path d="M28.537 1.358c-.201-.396-.639-.927-1.579-1.213-.317-.096-.624-.145-.914-.145-1.245 0-1.884.865-2.086 1.437l-.337 1.176v.003l-2.739 9.514c-.039.134-.049.273-.032.414l.458 3.795c.048.404.326.738.708.852.091.028.186.041.276.041.292 0 .575-.132.768-.371l2.366-2.941c.086-.105.148-.229.188-.358l3.046-10.587.001-.009.019-.062c.039-.132.229-.814-.143-1.546zm-4.773 11.426l-.771.956-.148-1.237 2.4-8.337.917.276-2.398 8.342zM21.756 18.381c-.515-.193-1.087.075-1.276.602-.009.026-.943 2.534-3.665 2.795-1.198.118-2.336-.042-3.346-.364.452-.233.812-.451 1.036-.635.955-.776 1.501-1.797 1.539-2.869.027-.794-.208-1.992-1.484-3.191-2.071-1.944-5.122-2.127-6.801-.411-2.509 2.566.033 5.404.99 6.474l.232.245c-1.529.487-3.068.832-3.907.749-1.668-.179-2.383-.948-3.209-1.841l-.154-.165c-.378-.404-1.007-.419-1.404-.032-.396.39-.41 1.033-.031 1.439l.146.158c.911.982 2.045 2.207 4.442 2.463 1.432.166 3.932-.502 6.068-1.293 1.358.776 3.096 1.348 5.073 1.348.325 0 .656-.016.993-.048 3.953-.38 5.288-3.965 5.343-4.117.192-.527-.071-1.112-.585-1.307zm-10.605 1.865c-.364-.268-.679-.552-.938-.841-1.653-1.847-1.919-2.77-1.051-3.656.387-.396.94-.588 1.546-.588.834 0 1.77.363 2.508 1.058.569.534.859 1.093.843 1.619-.021.601-.44 1.063-.789 1.348-.325.264-1.125.658-2.119 1.06z"/></svg>