<svg xmlns="http://www.w3.org/2000/svg" width="22.797" height="22.985"><path d="M11.398 0c-.267 0-.533.102-.736.307l-2.943 2.967c-.406.41-.407 1.075 0 1.486.203.205.469.307.736.307.266 0 .534-.103.737-.308l1.12-1.128-.002 3.508v3.255l-2.595-.001h-.633l-3.479.001 1.118-1.127c.406-.41.408-1.076 0-1.485-.203-.205-.47-.308-.736-.308s-.534.103-.737.308l-2.942 2.966c-.408.411-.407 1.076 0 1.487l2.943 2.966c.203.205.469.308.735.308.267 0 .534-.104.737-.309.406-.409.406-1.073 0-1.484l-1.118-1.126 3.952-.001h2.755l.001 6.764-1.12-1.127c-.203-.205-.471-.308-.737-.308-.267 0-.533.102-.736.307-.407.41-.406 1.076 0 1.485l2.943 2.967c.203.206.469.308.736.308s.534-.103.737-.308l2.944-2.968c.406-.409.406-1.074-.002-1.484-.203-.205-.469-.307-.735-.307-.267 0-.533.103-.737.307l-1.118 1.128v-6.764l6.708.001-1.119 1.127c-.406.411-.406 1.075 0 1.484.204.205.471.309.738.309s.532-.103.735-.308l2.943-2.966c.407-.411.407-1.076 0-1.487l-2.941-2.967c-.203-.205-.47-.308-.737-.308s-.534.103-.737.308c-.407.409-.406 1.075 0 1.485l1.119 1.127h-6.708v-6.7620000000000005l1.118 1.129c.204.205.47.307.737.307.266 0 .532-.103.735-.307.408-.411.408-1.075.002-1.485l-2.944-2.968c-.203-.205-.47-.308-.737-.308"/></svg>