<svg xmlns="http://www.w3.org/2000/svg" width="44.945" height="45"><path d="M22.464 41.561h-.08c-10.296-.043-19.07-8.595-18.98-19.262.088-10.351 8.655-18.892 19.072-18.892h.145c10.348.078 18.98 8.641 18.898 19.062.084 10.525-8.679 19.092-19.055 19.092m-.012-41.561h-.055c-12.416.028-22.357 9.903-22.397 22.377-.042 12.712 10.056 22.464 22.448 22.623 12.479-.141 22.482-9.951 22.498-22.513.013-12.418-9.858-22.488-22.494-22.487"/><path d="M24.288 12.954c-.369 0-.746.152-1.062.464-2.693 2.655-5.379 5.317-8.047 7.997-.265.265-.385.672-.591 1.052.204.397.306.792.555 1.042 2.683 2.695 5.387 5.369 8.09 8.045.292.289.632.441 1.015.441.125 0 .253-.016.387-.049.922-.229 1.541-1.477.519-2.47-2.208-2.146-4.383-4.33-6.597-6.472-.434-.419-.401-.658.012-1.061 2.224-2.156 4.431-4.336 6.631-6.523.646-.643.653-1.449.075-2.038-.277-.282-.628-.428-.987-.428"/></svg>