<svg xmlns="http://www.w3.org/2000/svg" width="19.025" height="19.965"><path d="M18.077 14.039c.521-.15.949.174.949.723v4.205c0 .549-.445.998-.988.998h-17.051c-.543 0-.987-.449-.987-.998v-4.208c0-.549.426-.872.947-.717l7.394 2.19c.521.153 1.375.16 1.898.012l7.838-2.205zM3.1 7.786c.735-2.598 1.006-7.825 2.203-7.786 1.197.039 3.36 2.717 4.026 2.717.667 0 3.637-1.638 4.382-1.579.746.059 1.823 4.91 2.389 6.454.057.153.133.202.291.197.458-.01.916-.005 1.374-.002l.27.032c.2.06.307.208.299.414-.01.216-.133.362-.347.401l-.324.014h-16.305l-.299-.009c-.218-.026-.377-.193-.377-.4 0-.229.11-.384.339-.432l.249-.02 1.83-.001zM6.125 11.345h1.994c.411.001.567.188.519.606-.084.701-.297 1.372-1.307 1.363-1.01-.008-3.624-1.174-3.702-1.41-.097-.299.106-.555.45-.559.682-.004 1.364 0 2.046 0zM12.655 11.345h1.996c.411.001.567.188.518.606-.086.701-.297 1.372-1.306 1.363-1.008-.008-3.624-1.174-3.703-1.41-.098-.299.107-.555.452-.559.681-.004 1.363 0 2.043 0z"/></svg>