<svg xmlns="http://www.w3.org/2000/svg" width="23.021" height="23.006"><path d="M2.375 21.012c-.223 0-.403-.183-.403-.408v-14.307c0-.23.177-.411.403-.411h10.998999999999999l-3.568 3.613c-.097.096-.171.211-.221.338l-1.571 4.03c-.145.371-.057.793.223 1.074.188.188.439.289.694.289.124 0 .249-.024.369-.072l3.96-1.614c.123-.051.235-.125.328-.22l3.434-3.475v10.754c0 .226-.181.408-.403.408h-14.244m8.314-8.568l.656-1.682 7.011-7.097.995 1.005-7.014 7.101-1.648.673m9.431-12.443c-.818 0-1.348.436-1.491.566l-.97.983-.002.002-2.313 2.341h-12.969000000000001c-1.31.001-2.375 1.08-2.375 2.405v14.306c0 1.324 1.065 2.402 2.375 2.402h14.245000000000001c1.309 0 2.374-1.078 2.374-2.402v-12.75l3.332-3.373.006-.009.053-.053c.104-.098.622-.631.636-1.501.008-.477-.141-1.204-.896-1.971-.771-.781-1.516-.946-2.005-.946"/></svg>