<svg xmlns="http://www.w3.org/2000/svg" width="22" height="21.982"><path d="M7.079 2.74h-6.014c-.588 0-1.065.481-1.065 1.075v14.352c0 .595.477 1.076 1.065 1.076h6.013c.588 0 1.066-.481 1.066-1.076 0-.592-.478-1.075-1.066-1.075h-4.946v-12.202h4.947c.588 0 1.066-.48 1.066-1.074 0-.595-.478-1.076-1.066-1.076"/><path d="M20.936 2.74h-6.014c-.589 0-1.066.481-1.066 1.075s.478 1.074 1.066 1.074h4.947v12.202h-4.947c-.589 0-1.066.483-1.066 1.075 0 .595.478 1.076 1.066 1.076h6.014c.588 0 1.064-.481 1.064-1.076v-14.351c0-.594-.477-1.075-1.064-1.075"/><path d="M11 9.883c-.607 0-1.099.497-1.099 1.108 0 .61.492 1.108 1.099 1.108s1.1-.498 1.1-1.108c0-.612-.493-1.108-1.1-1.108"/><path d="M11 6.588c-.607 0-1.099.498-1.099 1.109s.492 1.108 1.099 1.108 1.1-.496 1.1-1.107c0-.613-.493-1.11-1.1-1.11"/><path d="M11 3.293c-.607 0-1.099.496-1.099 1.109 0 .612.492 1.109 1.099 1.109s1.1-.497 1.1-1.109c0-.613-.493-1.109-1.1-1.109"/><path d="M11 19.765c-.607 0-1.099.497-1.099 1.108 0 .612.492 1.109 1.099 1.109s1.1-.497 1.1-1.109c0-.611-.493-1.108-1.1-1.108"/><path d="M11 16.471c-.607 0-1.099.496-1.099 1.109 0 .61.492 1.107 1.099 1.107s1.1-.497 1.1-1.107c0-.613-.493-1.109-1.1-1.109"/><path d="M11 13.177c-.607 0-1.099.497-1.099 1.11 0 .61.492 1.107 1.099 1.107s1.1-.497 1.1-1.107c0-.614-.493-1.11-1.1-1.11"/><path d="M11 0c-.607 0-1.099.496-1.099 1.107 0 .612.492 1.109 1.099 1.109s1.1-.497 1.1-1.109c0-.611-.493-1.107-1.1-1.107"/></svg>