<svg xmlns="http://www.w3.org/2000/svg" width="44.977" height="45"><path d="M22.497 41.561h.08c10.303-.043 19.083-8.595 18.993-19.262-.088-10.351-8.66-18.892-19.085-18.892h-.145c-10.355.078-18.993 8.641-18.911 19.064-.084 10.523 8.685 19.09 19.068 19.09m.012-41.561h.055c12.424.028 22.373 9.903 22.413 22.377.042 12.712-10.063 22.464-22.463 22.623-12.489-.141-22.498-9.952-22.514-22.513-.014-12.418 9.864-22.488 22.509-22.487"/><path d="M20.672 12.954c.369 0 .747.152 1.063.464 2.695 2.655 5.384 5.317 8.054 7.997.264.265.384.672.591 1.052-.205.397-.306.792-.555 1.042-2.685 2.695-5.392 5.369-8.097 8.045-.292.289-.632.441-1.016.441-.125 0-.253-.016-.387-.049-.923-.229-1.542-1.477-.52-2.47 2.209-2.146 4.386-4.33 6.602-6.472.434-.419.4-.658-.013-1.061-2.228-2.159-4.437-4.339-6.638-6.526-.646-.643-.653-1.449-.075-2.038.281-.279.631-.425.991-.425"/></svg>