<svg xmlns="http://www.w3.org/2000/svg" width="19.031" height="23.98"><path d="M3.323 22.213v-16.982h12.12v16.981h-12.12m4.311-18.766v-1.679h3.497v1.679h-3.497m4.358-3.446h-5.219c-.476 0-.861.396-.861.884v2.581h-5.051c-.476-.001-.861.394-.861.883 0 .486.385.884.861.884h.739v17.865c0 .488.385.884.861.884h13.844c.477 0 .86-.396.86-.884v-17.866h1.006c.476 0 .86-.396.86-.884s-.385-.884-.86-.884h-5.317v-2.58c0-.487-.386-.883-.862-.883"/><path d="M9.516 6.659c-.476 0-.861.396-.861.884v12.026c0 .487.385.884.861.884.475 0 .861-.396.861-.884v-12.027c0-.487-.386-.883-.861-.883"/><path d="M12.816 6.659c-.477 0-.862.396-.862.884v12.026c0 .487.386.884.862.884s.86-.396.86-.884v-12.027c.001-.487-.384-.883-.86-.883"/><path d="M5.948 6.659c-.475 0-.861.396-.861.884v12.026c0 .487.387.884.861.884.477 0 .861-.396.861-.884v-12.027c.001-.487-.384-.883-.861-.883"/></svg>