<svg xmlns="http://www.w3.org/2000/svg" width="81" height="81"><path d="M40.5 0c-22.368 0-40.5 18.132-40.5 40.5s18.132 40.5 40.5 40.5 40.5-18.132 40.5-40.5-18.132-40.5-40.5-40.5zm18.732 44.043h-15.189v15.188c0 1.957-1.586 3.545-3.544 3.545-1.957 0-3.543-1.588-3.543-3.545v-15.188h-15.187c-1.957 0-3.544-1.586-3.544-3.543 0-1.958 1.587-3.544 3.544-3.544h15.187v-15.187c0-1.957 1.586-3.543 3.543-3.543 1.958 0 3.544 1.587 3.544 3.543v15.188h15.189c1.957 0 3.543 1.586 3.543 3.544 0 1.956-1.586 3.542-3.543 3.542z"/></svg>