<svg xmlns="http://www.w3.org/2000/svg" width="27.973" height="27.997"><path d="M25.494 2.503c-1.61-1.661-2.832-2.503-3.633-2.503-.346 0-.665.129-.897.364l-3.584 3.586c-.292.292-.681.439-.972.512-.202.022-.403.052-.608.088-3.953.702-7.725 3.741-8.255 4.271-.745.743-.631 1.986.337 3.692.741 1.306 1.934 2.812 3.358 4.235 2.021 2.021 4.829 4.184 6.655 4.184.646 0 1.043-.264 1.266-.484.528-.531 3.565-4.308 4.267-8.264.035-.202.065-.405.087-.606.073-.292.22-.681.512-.974l3.583-3.586c.237-.237.366-.56.363-.91-.006-.801-.847-2.021-2.479-3.605zM9.535 18.454c-.354-.353-.97-.354-1.321 0l-5.659 5.664c-.364.364-.364.959 0 1.321.176.177.411.274.661.274s.484-.098.661-.274l5.659-5.663c.363-.363.364-.958-.001-1.322zM12.714 21.163c-.45-.229-.999-.099-1.194.285l-2.695 5.295c-.088.17-.102.371-.039.564.077.236.263.445.508.57.152.078.319.121.482.121.317 0 .583-.151.712-.406l2.696-5.295c.106-.207.103-.455-.011-.682-.093-.189-.256-.349-.459-.452zM6.936 15.911c.035-.209-.003-.435-.105-.639-.229-.449-.748-.667-1.135-.471l-5.292 2.699c-.207.105-.349.309-.391.557-.036.208.002.436.106.637.169.333.488.549.812.549.113 0 .221-.025.321-.076l5.291-2.697c.208-.107.351-.309.393-.559z"/></svg>