<?xml version="1.0" encoding="iso-8859-1"?>
<!-- Generator: Adobe Illustrator 16.0.4, SVG Export Plug-In . SVG Version: 6.00 Build 0)  -->
<!DOCTYPE svg PUBLIC "-//W3C//DTD SVG 1.1//EN" "http://www.w3.org/Graphics/SVG/1.1/DTD/svg11.dtd">
<svg version="1.1" id="Layer_1" xmlns="http://www.w3.org/2000/svg" xmlns:xlink="http://www.w3.org/1999/xlink" x="0px" y="0px"
	 width="81px" height="81px" viewBox="0 0 81 81" style="enable-background:new 0 0 81 81;" xml:space="preserve">
<path d="M40.5,0C18.132,0,0,18.132,0,40.5S18.132,81,40.5,81C62.868,81,81,62.868,81,40.5S62.868,0,40.5,0z M59.232,44.043H44.043
	v15.188c0,1.957-1.586,3.545-3.544,3.545c-1.957,0-3.543-1.588-3.543-3.545V44.043H21.769c-1.957,0-3.544-1.586-3.544-3.543
	c0-1.958,1.587-3.544,3.544-3.544h15.187V21.769c0-1.957,1.586-3.543,3.543-3.543c1.958,0,3.544,1.587,3.544,3.543v15.188h15.189
	c1.957,0,3.543,1.586,3.543,3.544C62.775,42.457,61.189,44.043,59.232,44.043z"/>
</svg>
