<?xml version="1.0" encoding="iso-8859-1"?>
<!-- Generator: Adobe Illustrator 16.0.4, SVG Export Plug-In . SVG Version: 6.00 Build 0)  -->
<!DOCTYPE svg PUBLIC "-//W3C//DTD SVG 1.1//EN" "http://www.w3.org/Graphics/SVG/1.1/DTD/svg11.dtd">
<svg version="1.1" id="Layer_1" xmlns="http://www.w3.org/2000/svg" xmlns:xlink="http://www.w3.org/1999/xlink" x="0px" y="0px"
	 width="28.764px" height="23.854px" viewBox="0 0 28.764 23.854" style="enable-background:new 0 0 28.764 23.854;"
	 xml:space="preserve">
<g>
	<path d="M28.537,1.358c-0.201-0.396-0.639-0.927-1.579-1.213C26.641,0.049,26.334,0,26.044,0c-1.245,0-1.884,0.865-2.086,1.437
		l-0.337,1.176c0,0.002,0,0.003,0,0.003l-2.739,9.514c-0.039,0.134-0.049,0.273-0.032,0.414l0.458,3.795
		c0.048,0.404,0.326,0.738,0.708,0.852c0.091,0.028,0.186,0.041,0.276,0.041c0.292,0,0.575-0.132,0.768-0.371l2.366-2.941
		c0.086-0.105,0.148-0.229,0.188-0.358l3.046-10.587c0.001-0.003,0-0.006,0.001-0.009l0.019-0.062
		C28.719,2.772,28.909,2.09,28.537,1.358z M23.764,12.784l-0.771,0.956l-0.148-1.237l2.4-8.337l0.917,0.276L23.764,12.784z"/>
	<path d="M21.756,18.381c-0.515-0.193-1.087,0.075-1.276,0.602c-0.009,0.026-0.943,2.534-3.665,2.795
		c-1.198,0.118-2.336-0.042-3.346-0.364c0.452-0.233,0.812-0.451,1.036-0.635c0.955-0.776,1.501-1.797,1.539-2.869
		c0.027-0.794-0.208-1.992-1.484-3.191c-2.071-1.944-5.122-2.127-6.801-0.411c-2.509,2.566,0.033,5.404,0.99,6.474
		c0.074,0.081,0.15,0.163,0.232,0.245c-1.529,0.487-3.068,0.832-3.907,0.749c-1.668-0.179-2.383-0.948-3.209-1.841L1.711,19.77
		c-0.378-0.404-1.007-0.419-1.404-0.032c-0.396,0.39-0.41,1.033-0.031,1.439l0.146,0.158c0.911,0.982,2.045,2.207,4.442,2.463
		c1.432,0.166,3.932-0.502,6.068-1.293c1.358,0.776,3.096,1.348,5.073,1.348c0.325,0,0.656-0.016,0.993-0.048
		c3.953-0.38,5.288-3.965,5.343-4.117C22.533,19.161,22.27,18.576,21.756,18.381z M11.151,20.246
		c-0.364-0.268-0.679-0.552-0.938-0.841c-1.653-1.847-1.919-2.77-1.051-3.656c0.387-0.396,0.94-0.588,1.546-0.588
		c0.834,0,1.77,0.363,2.508,1.058c0.569,0.534,0.859,1.093,0.843,1.619c-0.021,0.601-0.44,1.063-0.789,1.348
		C12.945,19.45,12.145,19.844,11.151,20.246z"/>
</g>
</svg>
