<?xml version="1.0" encoding="iso-8859-1"?>
<!-- Generator: Adobe Illustrator 16.0.4, SVG Export Plug-In . SVG Version: 6.00 Build 0)  -->
<!DOCTYPE svg PUBLIC "-//W3C//DTD SVG 1.1//EN" "http://www.w3.org/Graphics/SVG/1.1/DTD/svg11.dtd">
<svg version="1.1" id="Layer_1" xmlns="http://www.w3.org/2000/svg" xmlns:xlink="http://www.w3.org/1999/xlink" x="0px" y="0px"
	 width="19.025px" height="19.965px" viewBox="0 0 19.025 19.965" style="enable-background:new 0 0 19.025 19.965;"
	 xml:space="preserve">
<g>
	<path d="M18.077,14.039c0.521-0.15,0.949,0.174,0.949,0.723v4.205c0,0.549-0.445,0.998-0.988,0.998H0.987
		C0.444,19.965,0,19.516,0,18.967v-4.208c0-0.549,0.426-0.872,0.947-0.717l7.394,2.19c0.521,0.153,1.375,0.16,1.898,0.012
		L18.077,14.039z"/>
	<path d="M3.1,7.786C3.835,5.188,4.106-0.039,5.303,0C6.5,0.039,8.663,2.717,9.329,2.717c0.667,0,3.637-1.638,4.382-1.579
		c0.746,0.059,1.823,4.91,2.389,6.454c0.057,0.153,0.133,0.202,0.291,0.197c0.458-0.01,0.916-0.005,1.374-0.002
		c0.089,0,0.183,0.007,0.27,0.032c0.2,0.06,0.307,0.208,0.299,0.414c-0.01,0.216-0.133,0.362-0.347,0.401
		c-0.107,0.02-0.216,0.014-0.324,0.014c-5.436,0-10.871,0-16.305,0c-0.101,0-0.201,0.003-0.299-0.009
		c-0.218-0.026-0.377-0.193-0.377-0.4c0-0.229,0.11-0.384,0.339-0.432c0.081-0.017,0.166-0.02,0.249-0.02
		C1.869,7.786,2.466,7.786,3.1,7.786z"/>
	<path d="M6.125,11.345c0.665,0,1.329-0.002,1.994,0c0.411,0.001,0.567,0.188,0.519,0.606c-0.084,0.701-0.297,1.372-1.307,1.363
		c-1.01-0.008-3.624-1.174-3.702-1.41c-0.097-0.299,0.106-0.555,0.45-0.559C4.761,11.341,5.443,11.345,6.125,11.345z"/>
	<path d="M12.655,11.345c0.667,0,1.331-0.002,1.996,0c0.411,0.001,0.567,0.188,0.518,0.606c-0.086,0.701-0.297,1.372-1.306,1.363
		c-1.008-0.008-3.624-1.174-3.703-1.41c-0.098-0.299,0.107-0.555,0.452-0.559C11.293,11.341,11.975,11.345,12.655,11.345z"/>
</g>
</svg>
