<?xml version="1.0" encoding="iso-8859-1"?>
<!-- Generator: Adobe Illustrator 16.0.4, SVG Export Plug-In . SVG Version: 6.00 Build 0)  -->
<!DOCTYPE svg PUBLIC "-//W3C//DTD SVG 1.1//EN" "http://www.w3.org/Graphics/SVG/1.1/DTD/svg11.dtd">
<svg version="1.1" id="Layer_1" xmlns="http://www.w3.org/2000/svg" xmlns:xlink="http://www.w3.org/1999/xlink" x="0px" y="0px"
	 width="44.977px" height="45px" viewBox="0 0 44.977 45" style="enable-background:new 0 0 44.977 45;" xml:space="preserve">
<g>
	<path d="M22.497,41.561c0.025,0,0.055,0,0.08,0C32.88,41.518,41.66,32.966,41.57,22.299C41.482,11.948,32.91,3.407,22.485,3.407
		c-0.048,0-0.096,0-0.145,0C11.985,3.485,3.347,12.048,3.429,22.471C3.345,32.994,12.114,41.561,22.497,41.561 M22.509,0
		c0.018,0,0.036,0,0.055,0c12.424,0.028,22.373,9.903,22.413,22.377C45.019,35.089,34.914,44.841,22.514,45
		C10.025,44.859,0.016,35.048,0,22.487C-0.014,10.069,9.864-0.001,22.509,0"/>
	<path d="M20.672,12.954c0.369,0,0.747,0.152,1.063,0.464c2.695,2.655,5.384,5.317,8.054,7.997c0.264,0.265,0.384,0.672,0.591,1.052
		c-0.205,0.397-0.306,0.792-0.555,1.042c-2.685,2.695-5.392,5.369-8.097,8.045c-0.292,0.289-0.632,0.441-1.016,0.441
		c-0.125,0-0.253-0.016-0.387-0.049c-0.923-0.229-1.542-1.477-0.52-2.47c2.209-2.146,4.386-4.33,6.602-6.472
		c0.434-0.419,0.4-0.658-0.013-1.061c-2.228-2.159-4.437-4.339-6.638-6.526c-0.646-0.643-0.653-1.449-0.075-2.038
		C19.962,13.1,20.312,12.954,20.672,12.954"/>
</g>
</svg>
