<?xml version="1.0" encoding="iso-8859-1"?>
<!-- Generator: Adobe Illustrator 16.0.4, SVG Export Plug-In . SVG Version: 6.00 Build 0)  -->
<!DOCTYPE svg PUBLIC "-//W3C//DTD SVG 1.1//EN" "http://www.w3.org/Graphics/SVG/1.1/DTD/svg11.dtd">
<svg version="1.1" id="Layer_1" xmlns="http://www.w3.org/2000/svg" xmlns:xlink="http://www.w3.org/1999/xlink" x="0px" y="0px"
	 width="44.945px" height="45px" viewBox="0 0 44.945 45" style="enable-background:new 0 0 44.945 45;" xml:space="preserve">
<g>
	<path d="M22.464,41.561c-0.025,0-0.055,0-0.08,0C12.088,41.518,3.314,32.966,3.404,22.299C3.492,11.948,12.059,3.407,22.476,3.407
		c0.048,0,0.096,0,0.145,0c10.348,0.078,18.98,8.641,18.898,19.062C41.603,32.994,32.84,41.561,22.464,41.561 M22.452,0
		c-0.018,0-0.036,0-0.055,0C9.981,0.028,0.04,9.903,0,22.377C-0.042,35.089,10.056,44.841,22.448,45
		c12.479-0.141,22.482-9.951,22.498-22.513C44.959,10.069,35.088-0.001,22.452,0"/>
	<path d="M24.288,12.954c-0.369,0-0.746,0.152-1.062,0.464c-2.693,2.655-5.379,5.317-8.047,7.997
		c-0.265,0.265-0.385,0.672-0.591,1.052c0.204,0.397,0.306,0.792,0.555,1.042c2.683,2.695,5.387,5.369,8.09,8.045
		c0.292,0.289,0.632,0.441,1.015,0.441c0.125,0,0.253-0.016,0.387-0.049c0.922-0.229,1.541-1.477,0.519-2.47
		c-2.208-2.146-4.383-4.33-6.597-6.472c-0.434-0.419-0.401-0.658,0.012-1.061C20.793,19.787,23,17.607,25.2,15.42
		c0.646-0.643,0.653-1.449,0.075-2.038C24.998,13.1,24.647,12.954,24.288,12.954"/>
</g>
</svg>
