<?xml version="1.0" encoding="iso-8859-1"?>
<!-- Generator: Adobe Illustrator 16.0.4, SVG Export Plug-In . SVG Version: 6.00 Build 0)  -->
<!DOCTYPE svg PUBLIC "-//W3C//DTD SVG 1.1//EN" "http://www.w3.org/Graphics/SVG/1.1/DTD/svg11.dtd">
<svg version="1.1" id="Layer_1" xmlns="http://www.w3.org/2000/svg" xmlns:xlink="http://www.w3.org/1999/xlink" x="0px" y="0px"
	 width="22px" height="21.982px" viewBox="0 0 22 21.982" style="enable-background:new 0 0 22 21.982;" xml:space="preserve">
<g>
	<path d="M7.079,2.74H1.065C0.477,2.74,0,3.221,0,3.815v14.352c0,0.595,0.477,1.076,1.065,1.076h6.013
		c0.588,0,1.066-0.481,1.066-1.076c0-0.592-0.478-1.075-1.066-1.075H2.132V4.89h4.947c0.588,0,1.066-0.48,1.066-1.074
		C8.145,3.221,7.667,2.74,7.079,2.74"/>
	<path d="M20.936,2.74h-6.014c-0.589,0-1.066,0.481-1.066,1.075s0.478,1.074,1.066,1.074h4.947v12.202h-4.947
		c-0.589,0-1.066,0.483-1.066,1.075c0,0.595,0.478,1.076,1.066,1.076h6.014c0.588,0,1.064-0.481,1.064-1.076V3.815
		C22,3.221,21.523,2.74,20.936,2.74"/>
	<path d="M11,9.883c-0.607,0-1.099,0.497-1.099,1.108c0,0.61,0.492,1.108,1.099,1.108c0.607,0,1.1-0.498,1.1-1.108
		C12.1,10.379,11.607,9.883,11,9.883"/>
	<path d="M11,6.588c-0.607,0-1.099,0.498-1.099,1.109S10.393,8.805,11,8.805c0.607,0,1.1-0.496,1.1-1.107
		C12.1,7.085,11.607,6.588,11,6.588"/>
	<path d="M11,3.293c-0.607,0-1.099,0.496-1.099,1.109c0,0.612,0.492,1.109,1.099,1.109c0.607,0,1.1-0.497,1.1-1.109
		C12.1,3.789,11.607,3.293,11,3.293"/>
	<path d="M11,19.765c-0.607,0-1.099,0.497-1.099,1.108c0,0.612,0.492,1.109,1.099,1.109c0.607,0,1.1-0.497,1.1-1.109
		C12.1,20.262,11.607,19.765,11,19.765"/>
	<path d="M11,16.471c-0.607,0-1.099,0.496-1.099,1.109c0,0.61,0.492,1.107,1.099,1.107c0.607,0,1.1-0.497,1.1-1.107
		C12.1,16.967,11.607,16.471,11,16.471"/>
	<path d="M11,13.177c-0.607,0-1.099,0.497-1.099,1.11c0,0.61,0.492,1.107,1.099,1.107c0.607,0,1.1-0.497,1.1-1.107
		C12.1,13.673,11.607,13.177,11,13.177"/>
	<path d="M11,0c-0.607,0-1.099,0.496-1.099,1.107c0,0.612,0.492,1.109,1.099,1.109c0.607,0,1.1-0.497,1.1-1.109
		C12.1,0.496,11.607,0,11,0"/>
</g>
</svg>
