<?xml version="1.0" encoding="iso-8859-1"?>
<!-- Generator: Adobe Illustrator 16.0.4, SVG Export Plug-In . SVG Version: 6.00 Build 0)  -->
<!DOCTYPE svg PUBLIC "-//W3C//DTD SVG 1.1//EN" "http://www.w3.org/Graphics/SVG/1.1/DTD/svg11.dtd">
<svg version="1.1" id="Layer_1" xmlns="http://www.w3.org/2000/svg" xmlns:xlink="http://www.w3.org/1999/xlink" x="0px" y="0px"
	 width="9.856px" height="10px" viewBox="0 0 9.856 10" style="enable-background:new 0 0 9.856 10;" xml:space="preserve">
<path d="M9.131,0C8.927,0,8.725,0.076,8.581,0.224L4.927,4.012L1.274,0.224C1.133,0.076,0.93,0,0.726,0
	C0.559,0,0.39,0.05,0.253,0.153c-0.304,0.23-0.339,0.635-0.08,0.905L3.974,5l-3.8,3.94c-0.26,0.271-0.225,0.675,0.08,0.905
	C0.39,9.949,0.556,10,0.725,10c0.203,0,0.407-0.077,0.549-0.225l3.654-3.788l3.653,3.788C8.725,9.923,8.927,10,9.131,10
	c0.167,0,0.335-0.05,0.472-0.154c0.303-0.23,0.339-0.635,0.079-0.905L5.88,4.999l3.8-3.942c0.259-0.269,0.225-0.674-0.08-0.904
	C9.465,0.05,9.298,0,9.131,0"/>
</svg>
