<?xml version="1.0" encoding="iso-8859-1"?>
<!-- Generator: Adobe Illustrator 16.0.4, SVG Export Plug-In . SVG Version: 6.00 Build 0)  -->
<!DOCTYPE svg PUBLIC "-//W3C//DTD SVG 1.1//EN" "http://www.w3.org/Graphics/SVG/1.1/DTD/svg11.dtd">
<svg version="1.1" id="Layer_1" xmlns="http://www.w3.org/2000/svg" xmlns:xlink="http://www.w3.org/1999/xlink" x="0px" y="0px"
	 width="19.031px" height="23.98px" viewBox="0 0 19.031 23.98" style="enable-background:new 0 0 19.031 23.98;"
	 xml:space="preserve">
<g>
	<path d="M3.323,22.213V5.231h12.12v16.981H3.323 M7.634,3.446V1.767h3.497v1.679H7.634 M11.992,0H6.773
		C6.297,0,5.912,0.396,5.912,0.884v2.581H2.461h-1.6C0.385,3.464,0,3.859,0,4.348c0,0.486,0.385,0.884,0.861,0.884H1.6v17.865
		c0,0.488,0.385,0.884,0.861,0.884h13.844c0.477,0,0.86-0.396,0.86-0.884V5.231h1.006c0.476,0,0.86-0.396,0.86-0.884
		c0-0.488-0.385-0.884-0.86-0.884h-1.866h-3.451v-2.58C12.854,0.396,12.468,0,11.992,0"/>
	<path d="M9.516,6.659c-0.476,0-0.861,0.396-0.861,0.884v12.026c0,0.487,0.385,0.884,0.861,0.884c0.475,0,0.861-0.396,0.861-0.884
		V7.542C10.377,7.055,9.991,6.659,9.516,6.659"/>
	<path d="M12.816,6.659c-0.477,0-0.862,0.396-0.862,0.884v12.026c0,0.487,0.386,0.884,0.862,0.884c0.476,0,0.86-0.396,0.86-0.884
		V7.542C13.677,7.055,13.292,6.659,12.816,6.659"/>
	<path d="M5.948,6.659c-0.475,0-0.861,0.396-0.861,0.884v12.026c0,0.487,0.387,0.884,0.861,0.884c0.477,0,0.861-0.396,0.861-0.884
		V7.542C6.81,7.055,6.425,6.659,5.948,6.659"/>
</g>
</svg>
