<?xml version="1.0" encoding="iso-8859-1"?>
<!-- Generator: Adobe Illustrator 16.0.4, SVG Export Plug-In . SVG Version: 6.00 Build 0)  -->
<!DOCTYPE svg PUBLIC "-//W3C//DTD SVG 1.1//EN" "http://www.w3.org/Graphics/SVG/1.1/DTD/svg11.dtd">
<svg version="1.1" id="Layer_1" xmlns="http://www.w3.org/2000/svg" xmlns:xlink="http://www.w3.org/1999/xlink" x="0px" y="0px"
	 width="22.797px" height="22.985px" viewBox="0 0 22.797 22.985" style="enable-background:new 0 0 22.797 22.985;"
	 xml:space="preserve">
<path d="M11.398,0c-0.267,0-0.533,0.102-0.736,0.307L7.719,3.274c-0.406,0.41-0.407,1.075,0,1.486
	c0.203,0.205,0.469,0.307,0.736,0.307c0.266,0,0.534-0.103,0.737-0.308l1.12-1.128L10.31,7.139V7.14v0.477v0.161v2.616l-2.595-0.001
	h-0.16H7.083H7.082l-3.479,0.001l1.118-1.127c0.406-0.41,0.408-1.076,0-1.485c-0.203-0.205-0.47-0.308-0.736-0.308
	c-0.266,0-0.534,0.103-0.737,0.308l-2.942,2.966c-0.408,0.411-0.407,1.076,0,1.487l2.943,2.966c0.203,0.205,0.469,0.308,0.735,0.308
	c0.267,0,0.534-0.104,0.737-0.309c0.406-0.409,0.406-1.073,0-1.484L3.603,12.59l3.952-0.001h2.755l0.001,6.764l-1.12-1.127
	c-0.203-0.205-0.471-0.308-0.737-0.308c-0.267,0-0.533,0.102-0.736,0.307c-0.407,0.41-0.406,1.076,0,1.485l2.943,2.967
	c0.203,0.206,0.469,0.308,0.736,0.308c0.267,0,0.534-0.103,0.737-0.308l2.944-2.968c0.406-0.409,0.406-1.074-0.002-1.484
	c-0.203-0.205-0.469-0.307-0.735-0.307c-0.267,0-0.533,0.103-0.737,0.307l-1.118,1.128l0-6.764l6.708,0.001l-1.119,1.127
	c-0.406,0.411-0.406,1.075,0,1.484c0.204,0.205,0.471,0.309,0.738,0.309s0.532-0.103,0.735-0.308l2.943-2.966
	c0.407-0.411,0.407-1.076,0-1.487L19.55,7.782c-0.203-0.205-0.47-0.308-0.737-0.308c-0.267,0-0.534,0.103-0.737,0.308
	c-0.407,0.409-0.406,1.075,0,1.485l1.119,1.127h-6.708V7.617l0-3.985l1.118,1.129c0.204,0.205,0.47,0.307,0.737,0.307
	c0.266,0,0.532-0.103,0.735-0.307c0.408-0.411,0.408-1.075,0.002-1.485l-2.944-2.968C11.932,0.103,11.665,0,11.398,0"/>
</svg>
