<?xml version="1.0" encoding="iso-8859-1"?>
<!-- Generator: Adobe Illustrator 16.0.4, SVG Export Plug-In . SVG Version: 6.00 Build 0)  -->
<!DOCTYPE svg PUBLIC "-//W3C//DTD SVG 1.1//EN" "http://www.w3.org/Graphics/SVG/1.1/DTD/svg11.dtd">
<svg version="1.1" id="Layer_1" xmlns="http://www.w3.org/2000/svg" xmlns:xlink="http://www.w3.org/1999/xlink" x="0px" y="0px"
	 width="23.021px" height="23.006px" viewBox="0 0 23.021 23.006" style="enable-background:new 0 0 23.021 23.006;"
	 xml:space="preserve">
<path d="M2.375,21.012c-0.223,0-0.403-0.183-0.403-0.408V6.297c0-0.23,0.177-0.411,0.403-0.411h7.122h3.877L9.806,9.499
	C9.709,9.595,9.635,9.71,9.585,9.837l-1.571,4.03c-0.145,0.371-0.057,0.793,0.223,1.074c0.188,0.188,0.439,0.289,0.694,0.289
	c0.124,0,0.249-0.024,0.369-0.072l3.96-1.614c0.123-0.051,0.235-0.125,0.328-0.22l3.434-3.475v10.754
	c0,0.226-0.181,0.408-0.403,0.408H9.497H2.375 M10.689,12.443l0.656-1.682l7.011-7.097l0.995,1.005l-7.014,7.101L10.689,12.443
	 M20.12,0c-0.818,0-1.348,0.436-1.491,0.566l-0.97,0.983l-0.002,0.002l-2.313,2.341H9.497H2.375C1.065,3.893,0,4.972,0,6.297v14.306
	c0,1.324,1.065,2.402,2.375,2.402h7.122h7.123c1.309,0,2.374-1.078,2.374-2.402V7.853l3.332-3.373l0.006-0.009l0.053-0.053
	c0.104-0.098,0.622-0.631,0.636-1.501c0.008-0.477-0.141-1.204-0.896-1.971C21.354,0.165,20.609,0,20.12,0"/>
</svg>
