<?xml version="1.0" encoding="iso-8859-1"?>
<!-- Generator: Adobe Illustrator 16.0.4, SVG Export Plug-In . SVG Version: 6.00 Build 0)  -->
<!DOCTYPE svg PUBLIC "-//W3C//DTD SVG 1.1//EN" "http://www.w3.org/Graphics/SVG/1.1/DTD/svg11.dtd">
<svg version="1.1" id="Layer_1" xmlns="http://www.w3.org/2000/svg" xmlns:xlink="http://www.w3.org/1999/xlink" x="0px" y="0px"
	 width="22px" height="18.964px" viewBox="0 0 22 18.964" style="enable-background:new 0 0 22 18.964;" xml:space="preserve">
<g>
	<path d="M20.958,0h-4.165c-0.575,0-1.042,0.476-1.042,1.062s0.467,1.06,1.042,1.06h1.55l-2.909,2.963
		c-0.426,0.433-0.426,1.135,0,1.568c0.213,0.217,0.491,0.326,0.771,0.326c0.278,0,0.558-0.109,0.771-0.326l2.943-2.996v1.646
		c0,0.585,0.467,1.059,1.042,1.059c0.574,0,1.04-0.474,1.04-1.059V1.062C22,0.476,21.534,0,20.958,0"/>
	<path d="M16.203,12.093c-0.279,0-0.559,0.109-0.771,0.326c-0.425,0.434-0.425,1.135,0,1.568l2.805,2.854h-1.443
		c-0.575,0-1.042,0.476-1.042,1.062c0,0.587,0.467,1.062,1.042,1.062h4.165c0.576,0,1.042-0.475,1.042-1.062v-4.241
		c0-0.584-0.466-1.06-1.042-1.06c-0.574,0-1.042,0.476-1.042,1.06v1.752l-2.943-2.996C16.76,12.203,16.48,12.093,16.203,12.093"/>
	<path d="M5.208,0H1.042C0.467,0,0,0.476,0,1.062v4.241c0,0.585,0.467,1.059,1.042,1.059s1.042-0.474,1.042-1.059V3.69l2.911,2.962
		c0.212,0.217,0.491,0.326,0.77,0.326c0.279,0,0.558-0.109,0.771-0.326c0.426-0.433,0.426-1.135,0-1.568l-2.91-2.963h1.583
		c0.576,0,1.043-0.474,1.043-1.06C6.251,0.476,5.783,0,5.208,0"/>
	<path d="M5.765,12.093c-0.279,0-0.558,0.109-0.77,0.326L2.084,15.38v-1.719c0-0.584-0.466-1.06-1.042-1.06S0,13.078,0,13.662v4.241
		c0,0.587,0.467,1.062,1.042,1.062h4.165c0.576,0,1.043-0.475,1.043-1.062s-0.468-1.062-1.043-1.062H3.73l2.805-2.854
		c0.426-0.434,0.426-1.135,0-1.568C6.322,12.203,6.044,12.093,5.765,12.093"/>
</g>
</svg>
