<?xml version="1.0" encoding="utf-8"?>
<!-- Generator: Adobe Illustrator 17.1.0, SVG Export Plug-In . SVG Version: 6.00 Build 0)  -->
<!DOCTYPE svg PUBLIC "-//W3C//DTD SVG 1.1//EN" "http://www.w3.org/Graphics/SVG/1.1/DTD/svg11.dtd">
<svg version="1.1" id="Layer_1" xmlns="http://www.w3.org/2000/svg" xmlns:xlink="http://www.w3.org/1999/xlink" x="0px" y="0px"
	 viewBox="0 0 19.8 19.8" enable-background="new 0 0 19.8 19.8" xml:space="preserve">
<path fill="#515B6D" d="M4.7,0c1.1,0,2.1,0,3.2,0C8.3,0,8.7,0.1,9,0.5c0,0,0.1,0.1,0.1,0.1c4.4,4.4,9.6,9.6,10.3,10.3
	c0.6,0.6,0.6,1.4,0,2c-0.5,0.5-4.8,4.8-6.5,6.5c-0.7,0.7-1.5,0.7-2.2,0c-4.7-4.7-4.5-4.5-9.2-9.2C1.2,9.7,0.8,9.3,0.4,8.9
	C0.1,8.7,0,8.3,0,8c0-2.2,0-4.3,0-6.5C0,0.6,0.6,0,1.5,0C2.6,0,3.6,0,4.7,0z M5.7,4.3c0-0.8-0.6-1.4-1.4-1.4c-0.8,0-1.4,0.6-1.4,1.4
	c0,0.8,0.6,1.4,1.4,1.4C5.1,5.7,5.7,5.1,5.7,4.3z"/>
</svg>
