<?xml version="1.0" encoding="iso-8859-1"?>
<!-- Generator: Adobe Illustrator 16.0.4, SVG Export Plug-In . SVG Version: 6.00 Build 0)  -->
<!DOCTYPE svg PUBLIC "-//W3C//DTD SVG 1.1//EN" "http://www.w3.org/Graphics/SVG/1.1/DTD/svg11.dtd">
<svg version="1.1" id="Layer_1" xmlns="http://www.w3.org/2000/svg" xmlns:xlink="http://www.w3.org/1999/xlink" x="0px" y="0px"
	 width="27.973px" height="27.997px" viewBox="0 0 27.973 27.997" style="enable-background:new 0 0 27.973 27.997;"
	 xml:space="preserve">
<g>
	<path d="M25.494,2.503C23.884,0.842,22.662,0,21.861,0c-0.346,0-0.665,0.129-0.897,0.364L17.38,3.95
		c-0.292,0.292-0.681,0.439-0.972,0.512C16.206,4.484,16.005,4.514,15.8,4.55c-3.953,0.702-7.725,3.741-8.255,4.271
		C6.8,9.564,6.914,10.807,7.882,12.513c0.741,1.306,1.934,2.812,3.358,4.235c2.021,2.021,4.829,4.184,6.655,4.184l0,0
		c0.646,0,1.043-0.264,1.266-0.484c0.528-0.531,3.565-4.308,4.267-8.264c0.035-0.202,0.065-0.405,0.087-0.606
		c0.073-0.292,0.22-0.681,0.512-0.974l3.583-3.586c0.237-0.237,0.366-0.56,0.363-0.91C27.967,5.307,27.126,4.087,25.494,2.503z"/>
	<path d="M9.535,18.454c-0.354-0.353-0.97-0.354-1.321,0l-5.659,5.664c-0.364,0.364-0.364,0.959,0,1.321
		c0.176,0.177,0.411,0.274,0.661,0.274s0.484-0.098,0.661-0.274l5.659-5.663C9.899,19.413,9.9,18.818,9.535,18.454z"/>
	<path d="M12.714,21.163c-0.45-0.229-0.999-0.099-1.194,0.285l-2.695,5.295c-0.088,0.17-0.102,0.371-0.039,0.564
		c0.077,0.236,0.263,0.445,0.508,0.57c0.152,0.078,0.319,0.121,0.482,0.121c0.317,0,0.583-0.151,0.712-0.406l2.696-5.295
		c0.106-0.207,0.103-0.455-0.011-0.682C13.08,21.426,12.917,21.266,12.714,21.163z"/>
	<path d="M6.936,15.911c0.035-0.209-0.003-0.435-0.105-0.639c-0.229-0.449-0.748-0.667-1.135-0.471L0.404,17.5
		c-0.207,0.105-0.349,0.309-0.391,0.557c-0.036,0.208,0.002,0.436,0.106,0.637c0.169,0.333,0.488,0.549,0.812,0.549
		c0.113,0,0.221-0.025,0.321-0.076l5.291-2.697C6.751,16.363,6.894,16.161,6.936,15.911z"/>
</g>
</svg>
