<?xml version="1.0" encoding="iso-8859-1"?>
<!-- Generator: Adobe Illustrator 16.0.4, SVG Export Plug-In . SVG Version: 6.00 Build 0)  -->
<!DOCTYPE svg PUBLIC "-//W3C//DTD SVG 1.1//EN" "http://www.w3.org/Graphics/SVG/1.1/DTD/svg11.dtd">
<svg version="1.1" id="Layer_1" xmlns="http://www.w3.org/2000/svg" xmlns:xlink="http://www.w3.org/1999/xlink" x="0px" y="0px"
	 width="18.986px" height="21.958px" viewBox="0 0 18.986 21.958" style="enable-background:new 0 0 18.986 21.958;"
	 xml:space="preserve">
<path d="M9.391,0C9.264,0,9.138,0.049,9.042,0.142L5.74,3.345C5.64,3.442,5.584,3.574,5.584,3.714S5.64,3.986,5.74,4.083
	l3.302,3.203C9.137,7.378,9.263,7.427,9.39,7.427l0.198-0.041c0.185-0.081,0.306-0.266,0.306-0.47V4.769
	c3.937,0.213,7.078,3.519,7.078,7.562c0,4.182-3.354,7.584-7.479,7.584c-4.124,0-7.478-3.402-7.478-7.584
	c0-0.564-0.451-1.021-1.007-1.021C0.451,11.31,0,11.767,0,12.331c0,5.308,4.258,9.626,9.492,9.626c5.235,0,9.494-4.318,9.494-9.626
	c0-5.17-4.044-9.389-9.092-9.604V0.51c0-0.204-0.121-0.389-0.306-0.47C9.524,0.013,9.458,0,9.391,0"/>
</svg>
